<svg width="40" height="40" viewBox="0 0 40 40" fill="none" xmlns="http://www.w3.org/2000/svg">
<circle cx="20" cy="20" r="20" fill="url(#paint0_linear_1001_2990)"/>
<path d="M20.4044 30C18.1985 30 16.3235 29.6316 14.7794 28.8947C13.2353 28.1325 12.0466 26.9764 11.2132 25.4265C10.4044 23.8766 10 21.8947 10 19.4809C10 17.118 10.4044 15.1615 11.2132 13.6116C12.0221 12.0617 13.1863 10.9056 14.7059 10.1434C16.2255 9.38113 18.0515 9 20.1838 9C22.2917 9 24.0686 9.36842 25.5147 10.1053C26.9853 10.8421 28.1005 11.9728 28.8603 13.4973C29.6201 15.0218 30 16.9909 30 19.4047V20.7387H16.1029C16.1029 21.8058 16.25 22.7078 16.5441 23.4446C16.8382 24.1815 17.2917 24.7405 17.9044 25.1216C18.5172 25.5027 19.3382 25.6933 20.3676 25.6933C20.9804 25.6933 21.5196 25.6171 21.9853 25.4646C22.451 25.3122 22.8431 25.0962 23.1618 24.8167C23.4804 24.5118 23.7255 24.1561 23.8971 23.7495C24.0686 23.343 24.1544 22.8857 24.1544 22.3775H30C30 23.5971 29.7794 24.6897 29.3382 25.6552C28.9216 26.5953 28.2966 27.3956 27.4632 28.0563C26.6299 28.6915 25.6127 29.1742 24.4118 29.5045C23.2353 29.8348 21.8995 30 20.4044 30ZM16.1397 17.2704H23.8603C23.8603 16.6098 23.7745 16.0381 23.6029 15.5554C23.4559 15.0472 23.223 14.6279 22.9044 14.2976C22.6103 13.9673 22.2426 13.726 21.8015 13.5735C21.3848 13.3956 20.8946 13.3067 20.3309 13.3067C19.4485 13.3067 18.7132 13.4592 18.125 13.7641C17.5368 14.069 17.0833 14.5136 16.7647 15.098C16.4461 15.6824 16.2377 16.4065 16.1397 17.2704Z" fill="#FFEFBD"/>
<defs>
<linearGradient id="paint0_linear_1001_2990" x1="26" y1="1.02147e-06" x2="11.5" y2="38.5" gradientUnits="userSpaceOnUse">
<stop offset="0.368876" stop-color="#DA482C"/>
<stop offset="1" stop-color="#742617"/>
</linearGradient>
</defs>
</svg>
