<svg width="16" height="13" viewBox="0 0 16 13" fill="none" xmlns="http://www.w3.org/2000/svg">
<g id="icons">
<path id="Vector" d="M10.5 3.65625V10.1562C10.5 10.264 10.4473 10.3673 10.3536 10.4435C10.2598 10.5197 10.1326 10.5625 10 10.5625C9.86739 10.5625 9.74022 10.5197 9.64645 10.4435C9.55268 10.3673 9.5 10.264 9.5 10.1562V3.65625C9.5 3.54851 9.55268 3.44517 9.64645 3.36899C9.74022 3.2928 9.86739 3.25 10 3.25C10.1326 3.25 10.2598 3.2928 10.3536 3.36899C10.4473 3.44517 10.5 3.54851 10.5 3.65625ZM12.5 1.21875C12.3674 1.21875 12.2402 1.26155 12.1464 1.33774C12.0527 1.41392 12 1.51726 12 1.625V10.1562C12 10.264 12.0527 10.3673 12.1464 10.4435C12.2402 10.5197 12.3674 10.5625 12.5 10.5625C12.6326 10.5625 12.7598 10.5197 12.8536 10.4435C12.9473 10.3673 13 10.264 13 10.1562V1.625C13 1.51726 12.9473 1.41392 12.8536 1.33774C12.7598 1.26155 12.6326 1.21875 12.5 1.21875ZM7.5 5.28125C7.36739 5.28125 7.24022 5.32405 7.14645 5.40024C7.05268 5.47642 7 5.57976 7 5.6875V10.1562C7 10.264 7.05268 10.3673 7.14645 10.4435C7.24022 10.5197 7.36739 10.5625 7.5 10.5625C7.63261 10.5625 7.75979 10.5197 7.85355 10.4435C7.94732 10.3673 8 10.264 8 10.1562V5.6875C8 5.57976 7.94732 5.47642 7.85355 5.40024C7.75979 5.32405 7.63261 5.28125 7.5 5.28125ZM5 7.3125C4.86739 7.3125 4.74022 7.3553 4.64645 7.43149C4.55268 7.50767 4.5 7.61101 4.5 7.71875V10.1562C4.5 10.264 4.55268 10.3673 4.64645 10.4435C4.74022 10.5197 4.86739 10.5625 5 10.5625C5.13261 10.5625 5.25979 10.5197 5.35355 10.4435C5.44732 10.3673 5.5 10.264 5.5 10.1562V7.71875C5.5 7.61101 5.44732 7.50767 5.35355 7.43149C5.25979 7.3553 5.13261 7.3125 5 7.3125ZM2.5 9.34375C2.36739 9.34375 2.24021 9.38655 2.14645 9.46274C2.05268 9.53892 2 9.64226 2 9.75V10.1562C2 10.264 2.05268 10.3673 2.14645 10.4435C2.24021 10.5197 2.36739 10.5625 2.5 10.5625C2.63261 10.5625 2.75979 10.5197 2.85355 10.4435C2.94732 10.3673 3 10.264 3 10.1562V9.75C3 9.64226 2.94732 9.53892 2.85355 9.46274C2.75979 9.38655 2.63261 9.34375 2.5 9.34375Z" fill="white"/>
</g>
</svg>
