<svg width="44" height="45" viewBox="0 0 44 45" fill="none" xmlns="http://www.w3.org/2000/svg">
<rect y="0.260742" width="44" height="44" rx="22" fill="#932816"/>
<path d="M22.0012 11.0103C15.7891 11.0103 10.7534 16.0467 10.7534 22.2587C10.7534 24.3011 11.3104 26.3051 12.3628 28.0555L11.7604 32.1367C11.6045 33.1359 12.4053 33.627 13.1515 33.4874L17.7124 32.6561C19.0726 33.2174 20.5297 33.5063 22.0012 33.5065C28.2132 33.5065 33.2497 28.4708 33.2497 22.2587C33.2497 16.0467 28.2125 11.0103 22.0012 11.0103ZM18.2666 16.2118C18.4671 16.221 18.6634 16.2961 18.842 16.469C18.8895 16.5151 18.9355 16.5682 18.9802 16.6292L20.0361 19.0577C20.2501 19.4602 20.0538 19.8429 19.8263 20.1505L18.8144 21.5153C19.2452 22.1829 19.9121 22.9723 20.8815 23.8482C21.8524 24.7241 22.7056 25.3066 23.4135 25.6674L24.6678 24.5222C24.9506 24.2642 25.312 24.0304 25.7337 24.2026L28.2572 25.0055C28.3217 25.0437 28.3798 25.0841 28.4301 25.1267C29.1912 25.7659 28.428 26.8508 28.0077 27.3164C27.1007 28.3198 25.6359 28.8187 24.1243 28.5246C22.612 28.2298 21.0261 27.3001 19.2296 25.678C17.4332 24.0559 16.3468 22.5727 15.8997 21.0987C15.4532 19.6247 15.8005 18.1152 16.7068 17.1125C17.0222 16.7631 17.6635 16.187 18.2659 16.2125L18.2666 16.2118Z" fill="#F8F8F7"/>
</svg>
