<svg width="44" height="45" viewBox="0 0 44 45" fill="none" xmlns="http://www.w3.org/2000/svg">
<rect y="0.260742" width="44" height="44" rx="22" fill="#932816"/>
<path d="M29.0001 14.2607H15.0001C14.2045 14.2607 13.4414 14.5768 12.8788 15.1394C12.3162 15.702 12.0001 16.4651 12.0001 17.2607V27.2607C12.0001 28.0564 12.3162 28.8195 12.8788 29.3821C13.4414 29.9447 14.2045 30.2607 15.0001 30.2607H29.0001C29.7958 30.2607 30.5588 29.9447 31.1214 29.3821C31.6841 28.8195 32.0001 28.0564 32.0001 27.2607V17.2607C32.0001 16.4651 31.6841 15.702 31.1214 15.1394C30.5588 14.5768 29.7958 14.2607 29.0001 14.2607ZM29.0001 16.2607L22.5001 20.7307C22.3481 20.8185 22.1757 20.8647 22.0001 20.8647C21.8246 20.8647 21.6521 20.8185 21.5001 20.7307L15.0001 16.2607H29.0001Z" fill="#F8F8F7"/>
</svg>
