<svg width="44" height="45" viewBox="0 0 44 45" fill="none" xmlns="http://www.w3.org/2000/svg">
<rect y="0.260742" width="44" height="44" rx="22" fill="#932816"/>
<path d="M26.1901 12.2607H17.8101C14.1701 12.2607 12.0001 14.4307 12.0001 18.0707V26.4407C12.0001 30.0907 14.1701 32.2607 17.8101 32.2607H26.1801C29.8201 32.2607 31.9901 30.0907 31.9901 26.4507V18.0707C32.0001 14.4307 29.8301 12.2607 26.1901 12.2607ZM22.0001 26.1407C19.8601 26.1407 18.1201 24.4007 18.1201 22.2607C18.1201 20.1207 19.8601 18.3807 22.0001 18.3807C24.1401 18.3807 25.8801 20.1207 25.8801 22.2607C25.8801 24.4007 24.1401 26.1407 22.0001 26.1407ZM27.9201 17.1407C27.8701 17.2607 27.8001 17.3707 27.7101 17.4707C27.6101 17.5607 27.5001 17.6307 27.3801 17.6807C27.2601 17.7307 27.1301 17.7607 27.0001 17.7607C26.7301 17.7607 26.4801 17.6607 26.2901 17.4707C26.2001 17.3707 26.1301 17.2607 26.0801 17.1407C26.0301 17.0207 26.0001 16.8907 26.0001 16.7607C26.0001 16.6307 26.0301 16.5007 26.0801 16.3807C26.1301 16.2507 26.2001 16.1507 26.2901 16.0507C26.5201 15.8207 26.8701 15.7107 27.1901 15.7807C27.2601 15.7907 27.3201 15.8107 27.3801 15.8407C27.4401 15.8607 27.5001 15.8907 27.5601 15.9307C27.6101 15.9607 27.6601 16.0107 27.7101 16.0507C27.8001 16.1507 27.8701 16.2507 27.9201 16.3807C27.9701 16.5007 28.0001 16.6307 28.0001 16.7607C28.0001 16.8907 27.9701 17.0207 27.9201 17.1407Z" fill="#F8F8F7"/>
</svg>
