<svg width="23" height="22" viewBox="0 0 23 22" fill="none" xmlns="http://www.w3.org/2000/svg">
<g id="Insta">
<path id="Vector" d="M15.6499 1.77157C16.8696 1.77507 18.0384 2.24289 18.9009 3.07285C19.7634 3.9028 20.2495 5.02746 20.2532 6.20119V15.0595C20.2495 16.2332 19.7634 17.3579 18.9009 18.1878C18.0384 19.0178 16.8696 19.4856 15.6499 19.4891H6.4443C5.22456 19.4856 4.05581 19.0178 3.19331 18.1878C2.33082 17.3579 1.84466 16.2332 1.84102 15.0595V6.20119C1.84466 5.02746 2.33082 3.9028 3.19331 3.07285C4.05581 2.24289 5.22456 1.77507 6.4443 1.77157H15.6499ZM15.6499 0H6.4443C2.89986 0 0 2.79047 0 6.20119V15.0595C0 18.4702 2.89986 21.2607 6.4443 21.2607H15.6499C19.1943 21.2607 22.0942 18.4702 22.0942 15.0595V6.20119C22.0942 2.79047 19.1943 0 15.6499 0Z" fill="#F8F8F7"/>
<path id="Vector_2" d="M17.0309 6.20129C16.7578 6.20129 16.4908 6.12336 16.2637 5.97735C16.0366 5.83134 15.8596 5.62381 15.7551 5.381C15.6506 5.1382 15.6233 4.87102 15.6766 4.61326C15.7298 4.3555 15.8614 4.11873 16.0545 3.9329C16.2476 3.74706 16.4936 3.62051 16.7615 3.56923C17.0294 3.51796 17.307 3.54428 17.5593 3.64485C17.8117 3.74542 18.0273 3.91574 18.1791 4.13426C18.3308 4.35278 18.4118 4.60968 18.4118 4.87249C18.4122 5.0471 18.3767 5.22006 18.3075 5.38145C18.2382 5.54283 18.1365 5.68947 18.0082 5.81293C17.8799 5.9364 17.7275 6.03426 17.5598 6.1009C17.3921 6.16755 17.2124 6.20166 17.0309 6.20129ZM11.0472 7.08683C11.7756 7.08683 12.4875 7.29466 13.0931 7.68404C13.6987 8.07342 14.1707 8.62685 14.4494 9.27436C14.7282 9.92187 14.8011 10.6344 14.659 11.3218C14.5169 12.0092 14.1662 12.6406 13.6512 13.1361C13.1362 13.6317 12.48 13.9692 11.7657 14.106C11.0513 14.2427 10.3109 14.1725 9.63799 13.9043C8.96509 13.6361 8.38996 13.1819 7.98532 12.5992C7.58068 12.0164 7.3647 11.3313 7.3647 10.6304C7.36575 9.69092 7.75406 8.79018 8.44444 8.12584C9.13482 7.4615 10.0709 7.08784 11.0472 7.08683ZM11.0472 5.31527C9.95478 5.31527 8.88685 5.627 7.97851 6.21104C7.07017 6.79507 6.3622 7.62519 5.94414 8.59641C5.52607 9.56763 5.41669 10.6363 5.62982 11.6674C5.84294 12.6984 6.36901 13.6455 7.14149 14.3888C7.91398 15.1322 8.89818 15.6384 9.96964 15.8435C11.0411 16.0486 12.1517 15.9433 13.161 15.541C14.1703 15.1387 15.033 14.4575 15.6399 13.5834C16.2468 12.7093 16.5708 11.6817 16.5708 10.6304C16.5708 9.22077 15.9888 7.86883 14.953 6.87205C13.9171 5.87526 12.5122 5.31527 11.0472 5.31527Z" fill="#F8F8F7"/>
</g>
</svg>
