<svg width="16" height="13" viewBox="0 0 16 13" fill="none" xmlns="http://www.w3.org/2000/svg">
<g id="icons">
<path id="Vector" d="M14.4324 10.7656C13.4805 9.42855 12.0137 8.4698 10.3018 8.01531C11.1486 7.60573 11.8065 6.98164 12.1744 6.23887C12.5424 5.4961 12.6001 4.67573 12.3387 3.90373C12.0773 3.13173 11.5112 2.45079 10.7274 1.96549C9.94359 1.48019 8.98538 1.21736 7.99993 1.21736C7.01447 1.21736 6.05626 1.48019 5.27244 1.96549C4.48863 2.45079 3.92255 3.13173 3.66114 3.90373C3.39973 4.67573 3.45744 5.4961 3.82542 6.23887C4.19339 6.98164 4.85128 7.60573 5.69805 8.01531C3.98618 8.46929 2.5193 9.42804 1.56743 10.7656C1.53252 10.8119 1.50936 10.8633 1.49933 10.917C1.4893 10.9706 1.49259 11.0253 1.509 11.0779C1.52542 11.1305 1.55463 11.1799 1.59492 11.2231C1.63521 11.2664 1.68575 11.3027 1.74357 11.3298C1.80138 11.3569 1.8653 11.3744 1.93155 11.3811C1.99781 11.3878 2.06505 11.3837 2.12931 11.369C2.19358 11.3543 2.25356 11.3293 2.30573 11.2954C2.3579 11.2615 2.40119 11.2195 2.43305 11.1719C3.61055 9.51843 5.6918 8.53124 7.99993 8.53124C10.3081 8.53124 12.3893 9.51843 13.5668 11.1719C13.5987 11.2195 13.642 11.2615 13.6941 11.2954C13.7463 11.3293 13.8063 11.3543 13.8705 11.369C13.9348 11.3837 14.002 11.3878 14.0683 11.3811C14.1345 11.3744 14.1985 11.3569 14.2563 11.3298C14.3141 11.3027 14.3646 11.2664 14.4049 11.2231C14.4452 11.1799 14.4744 11.1305 14.4908 11.0779C14.5073 11.0253 14.5106 10.9706 14.5005 10.917C14.4905 10.8633 14.4673 10.8119 14.4324 10.7656ZM4.49993 4.87499C4.49993 4.31255 4.7052 3.76274 5.08978 3.29509C5.47437 2.82744 6.02099 2.46295 6.66053 2.24771C7.30007 2.03247 8.00381 1.97616 8.68274 2.08588C9.36168 2.19561 9.98531 2.46645 10.4748 2.86416C10.9643 3.26186 11.2976 3.76857 11.4327 4.32021C11.5677 4.87184 11.4984 5.44362 11.2335 5.96325C10.9686 6.48288 10.52 6.92701 9.94442 7.23949C9.36885 7.55196 8.69216 7.71874 7.99993 7.71874C7.07197 7.71794 6.18231 7.41807 5.52615 6.88494C4.86999 6.35181 4.50092 5.62896 4.49993 4.87499Z" fill="white"/>
</g>
</svg>
