<svg width="72" height="72" viewBox="0 0 72 72" fill="none" xmlns="http://www.w3.org/2000/svg">
<rect width="72" height="72" rx="36" fill="#FFEFBD"/>
<rect width="40" height="40" transform="translate(16 16)" fill="white"/>
<mask id="path-2-inside-1_712_1052" fill="white">
<path d="M37.2395 36C39.3105 36 40.9895 37.6789 40.9895 39.75L40.9875 41.6209C41.2447 46.2123 37.7083 48.502 31.1505 48.502C24.6138 48.502 21 46.2423 21 41.6864V39.75C21 37.6789 22.6789 36 24.75 36H37.2395ZM47.241 36C49.312 36 50.991 37.6789 50.991 39.75L50.9891 41.0664C51.2151 45.1851 48.0904 47.25 42.379 47.25C41.6037 47.25 40.8748 47.2122 40.1941 47.1366C40.9208 46.4682 41.4621 45.6703 41.807 44.7434L42.379 44.75C46.8395 44.75 48.6228 43.5715 48.491 41.1349V39.75C48.491 39.0596 47.9313 38.5 47.241 38.5L42.0819 38.5C41.8288 37.5167 41.2842 36.6505 40.5456 35.999L47.241 36ZM37.2395 38.5H24.75C24.0596 38.5 23.5 39.0596 23.5 39.75V41.6864C23.5 44.5514 25.8199 46.002 31.1505 46.002C36.4599 46.002 38.6496 44.5843 38.4895 41.6908V39.75C38.4895 39.0596 37.9298 38.5 37.2395 38.5ZM31 21C34.4523 21 37.251 23.7987 37.251 27.251C37.251 30.7034 34.4523 33.502 31 33.502C27.5477 33.502 24.749 30.7034 24.749 27.251C24.749 23.7987 27.5477 21 31 21ZM43.5 23.5C46.2614 23.5 48.5 25.7386 48.5 28.5C48.5 31.2614 46.2614 33.5 43.5 33.5C40.7386 33.5 38.5 31.2614 38.5 28.5C38.5 25.7386 40.7386 23.5 43.5 23.5ZM31 23.5C28.9284 23.5 27.249 25.1794 27.249 27.251C27.249 29.3226 28.9284 31.002 31 31.002C33.0716 31.002 34.751 29.3226 34.751 27.251C34.751 25.1794 33.0716 23.5 31 23.5ZM43.5 26C42.1193 26 41 27.1193 41 28.5C41 29.8807 42.1193 31 43.5 31C44.8807 31 46 29.8807 46 28.5C46 27.1193 44.8807 26 43.5 26Z"/>
</mask>
<path d="M37.2395 36C39.3105 36 40.9895 37.6789 40.9895 39.75L40.9875 41.6209C41.2447 46.2123 37.7083 48.502 31.1505 48.502C24.6138 48.502 21 46.2423 21 41.6864V39.75C21 37.6789 22.6789 36 24.75 36H37.2395ZM47.241 36C49.312 36 50.991 37.6789 50.991 39.75L50.9891 41.0664C51.2151 45.1851 48.0904 47.25 42.379 47.25C41.6037 47.25 40.8748 47.2122 40.1941 47.1366C40.9208 46.4682 41.4621 45.6703 41.807 44.7434L42.379 44.75C46.8395 44.75 48.6228 43.5715 48.491 41.1349V39.75C48.491 39.0596 47.9313 38.5 47.241 38.5L42.0819 38.5C41.8288 37.5167 41.2842 36.6505 40.5456 35.999L47.241 36ZM37.2395 38.5H24.75C24.0596 38.5 23.5 39.0596 23.5 39.75V41.6864C23.5 44.5514 25.8199 46.002 31.1505 46.002C36.4599 46.002 38.6496 44.5843 38.4895 41.6908V39.75C38.4895 39.0596 37.9298 38.5 37.2395 38.5ZM31 21C34.4523 21 37.251 23.7987 37.251 27.251C37.251 30.7034 34.4523 33.502 31 33.502C27.5477 33.502 24.749 30.7034 24.749 27.251C24.749 23.7987 27.5477 21 31 21ZM43.5 23.5C46.2614 23.5 48.5 25.7386 48.5 28.5C48.5 31.2614 46.2614 33.5 43.5 33.5C40.7386 33.5 38.5 31.2614 38.5 28.5C38.5 25.7386 40.7386 23.5 43.5 23.5ZM31 23.5C28.9284 23.5 27.249 25.1794 27.249 27.251C27.249 29.3226 28.9284 31.002 31 31.002C33.0716 31.002 34.751 29.3226 34.751 27.251C34.751 25.1794 33.0716 23.5 31 23.5ZM43.5 26C42.1193 26 41 27.1193 41 28.5C41 29.8807 42.1193 31 43.5 31C44.8807 31 46 29.8807 46 28.5C46 27.1193 44.8807 26 43.5 26Z" fill="#932816"/>
<path d="M40.9895 39.75L44.0881 39.7532V39.75H40.9895ZM40.9875 41.6209L37.8889 41.6177L37.8888 41.706L37.8938 41.7942L40.9875 41.6209ZM47.241 36L47.2405 39.0986H47.241V36ZM50.991 39.75L54.0896 39.7544V39.75H50.991ZM50.9891 41.0664L47.8905 41.062L47.8904 41.1492L47.8952 41.2362L50.9891 41.0664ZM40.1941 47.1366L38.0964 44.8561L33.0858 49.465L39.8522 50.2163L40.1941 47.1366ZM41.807 44.7434L41.8425 41.6451L39.6631 41.6201L38.9029 43.6628L41.807 44.7434ZM42.379 44.75L42.3435 47.8484L42.3612 47.8486H42.379V44.75ZM48.491 41.1349H45.3924V41.2187L45.3969 41.3023L48.491 41.1349ZM47.241 38.5L47.2409 41.5986H47.241V38.5ZM42.0819 38.5L39.0811 39.2723L39.6799 41.5985L42.0819 41.5985L42.0819 38.5ZM40.5456 35.999L40.5461 32.9004L32.3471 32.8991L38.4959 38.3227L40.5456 35.999ZM38.4895 41.6908H35.3909V41.7765L35.3956 41.862L38.4895 41.6908ZM37.2395 39.0986C37.5992 39.0986 37.8909 39.3902 37.8909 39.75H44.0881C44.0881 35.9676 41.0218 32.9014 37.2395 32.9014V39.0986ZM37.8909 39.7468L37.8889 41.6177L44.0861 41.6242L44.0881 39.7532L37.8909 39.7468ZM37.8938 41.7942C37.9682 43.1231 37.5597 43.7563 36.8722 44.2278C35.9521 44.8588 34.1686 45.4034 31.1505 45.4034V51.6006C34.6902 51.6006 37.9538 51.0004 40.377 49.3387C43.0329 47.5174 44.264 44.7101 44.0813 41.4476L37.8938 41.7942ZM31.1505 45.4034C28.1508 45.4034 26.321 44.8694 25.3296 44.2158C24.5428 43.697 24.0986 43.0019 24.0986 41.6864H17.9014C17.9014 44.9268 19.2641 47.6395 21.9183 49.3896C24.368 51.0047 27.6135 51.6006 31.1505 51.6006V45.4034ZM24.0986 41.6864V39.75H17.9014V41.6864H24.0986ZM24.0986 39.75C24.0986 39.3902 24.3902 39.0986 24.75 39.0986V32.9014C20.9676 32.9014 17.9014 35.9676 17.9014 39.75H24.0986ZM24.75 39.0986H37.2395V32.9014H24.75V39.0986ZM47.241 39.0986C47.6007 39.0986 47.8924 39.3902 47.8924 39.75H54.0896C54.0896 35.9676 51.0233 32.9014 47.241 32.9014V39.0986ZM47.8924 39.7456L47.8905 41.062L54.0877 41.0709L54.0896 39.7544L47.8924 39.7456ZM47.8952 41.2362C47.9565 42.3532 47.6229 42.8203 47.1287 43.1677C46.4164 43.6684 44.9574 44.1514 42.379 44.1514V50.3486C45.512 50.3486 48.4711 49.7992 50.6925 48.2377C53.132 46.523 54.2478 43.8983 54.083 40.8966L47.8952 41.2362ZM42.379 44.1514C41.7031 44.1514 41.0894 44.1184 40.5361 44.057L39.8522 50.2163C40.6602 50.306 41.5042 50.3486 42.379 50.3486V44.1514ZM42.2918 49.4172C43.3716 48.424 44.1926 47.2171 44.711 45.8241L38.9029 43.6628C38.7315 44.1235 38.47 44.5125 38.0964 44.8561L42.2918 49.4172ZM41.7715 47.8418L42.3435 47.8484L42.4145 41.6516L41.8425 41.6451L41.7715 47.8418ZM42.379 47.8486C44.7428 47.8486 47.0232 47.5625 48.7652 46.5048C49.708 45.9324 50.5017 45.1283 51.0103 44.0728C51.5078 43.0403 51.6389 41.9628 51.585 40.9675L45.3969 41.3023C45.409 41.5254 45.3666 41.5089 45.4274 41.3827C45.4994 41.2334 45.5931 41.1808 45.549 41.2076C45.4707 41.2551 45.2187 41.3781 44.6633 41.4823C44.1156 41.585 43.3699 41.6514 42.379 41.6514V47.8486ZM51.5896 41.1349V39.75H45.3924V41.1349H51.5896ZM51.5896 39.75C51.5896 37.3483 49.6426 35.4014 47.241 35.4014V41.5986C46.22 41.5986 45.3924 40.7709 45.3924 39.75H51.5896ZM47.241 35.4014L42.082 35.4014L42.0819 41.5985L47.2409 41.5986L47.241 35.4014ZM45.0827 37.7276C44.6711 36.1286 43.7872 34.7266 42.5953 33.6752L38.4959 38.3227C38.7811 38.5743 38.9865 38.9048 39.0811 39.2723L45.0827 37.7276ZM40.5451 39.0976L47.2405 39.0986L47.2414 32.9014L40.5461 32.9004L40.5451 39.0976ZM37.2395 35.4014H24.75V41.5986H37.2395V35.4014ZM24.75 35.4014C22.3483 35.4014 20.4014 37.3483 20.4014 39.75H26.5986C26.5986 40.7709 25.7709 41.5986 24.75 41.5986V35.4014ZM20.4014 39.75V41.6864H26.5986V39.75H20.4014ZM20.4014 41.6864C20.4014 42.8267 20.6351 43.9956 21.2401 45.0796C21.8495 46.1714 22.7377 47.001 23.775 47.6009C25.7378 48.7361 28.3189 49.1006 31.1505 49.1006V42.9034C28.6514 42.9034 27.4073 42.5427 26.8775 42.2363C26.7664 42.172 26.7088 42.1223 26.6832 42.0971C26.6594 42.0738 26.6531 42.0622 26.6514 42.0592C26.6494 42.0556 26.6383 42.0355 26.6263 41.9847C26.6137 41.9313 26.5986 41.836 26.5986 41.6864H20.4014ZM31.1505 49.1006C33.9468 49.1006 36.5298 48.7522 38.4677 47.587C39.505 46.9634 40.3755 46.0942 40.937 44.9536C41.4892 43.8317 41.6456 42.645 41.5833 41.5196L35.3956 41.862C35.4134 42.1834 35.3561 42.2589 35.3769 42.2166C35.4069 42.1557 35.4282 42.1835 35.2744 42.2759C34.8302 42.543 33.6636 42.9034 31.1505 42.9034V49.1006ZM41.5881 41.6908V39.75H35.3909V41.6908H41.5881ZM41.5881 39.75C41.5881 37.3483 39.6411 35.4014 37.2395 35.4014V41.5986C36.2185 41.5986 35.3909 40.7709 35.3909 39.75H41.5881ZM31 24.0986C32.741 24.0986 34.1524 25.51 34.1524 27.251H40.3496C40.3496 22.0874 36.1636 17.9014 31 17.9014V24.0986ZM34.1524 27.251C34.1524 28.992 32.741 30.4034 31 30.4034V36.6006C36.1636 36.6006 40.3496 32.4147 40.3496 27.251H34.1524ZM31 30.4034C29.259 30.4034 27.8476 28.992 27.8476 27.251H21.6504C21.6504 32.4147 25.8364 36.6006 31 36.6006V30.4034ZM27.8476 27.251C27.8476 25.51 29.259 24.0986 31 24.0986V17.9014C25.8364 17.9014 21.6504 22.0874 21.6504 27.251H27.8476ZM43.5 26.5986C44.5501 26.5986 45.4014 27.4499 45.4014 28.5H51.5986C51.5986 24.0273 47.9727 20.4014 43.5 20.4014V26.5986ZM45.4014 28.5C45.4014 29.5501 44.5501 30.4014 43.5 30.4014V36.5986C47.9727 36.5986 51.5986 32.9727 51.5986 28.5H45.4014ZM43.5 30.4014C42.4499 30.4014 41.5986 29.5501 41.5986 28.5H35.4014C35.4014 32.9727 39.0273 36.5986 43.5 36.5986V30.4014ZM41.5986 28.5C41.5986 27.4499 42.4499 26.5986 43.5 26.5986V20.4014C39.0273 20.4014 35.4014 24.0273 35.4014 28.5H41.5986ZM31 20.4014C27.2171 20.4014 24.1504 23.4681 24.1504 27.251H30.3476C30.3476 26.8907 30.6397 26.5986 31 26.5986V20.4014ZM24.1504 27.251C24.1504 31.0339 27.2171 34.1006 31 34.1006V27.9034C30.6397 27.9034 30.3476 27.6113 30.3476 27.251H24.1504ZM31 34.1006C34.7829 34.1006 37.8496 31.0339 37.8496 27.251H31.6524C31.6524 27.6113 31.3603 27.9034 31 27.9034V34.1006ZM37.8496 27.251C37.8496 23.4681 34.7829 20.4014 31 20.4014V26.5986C31.3603 26.5986 31.6524 26.8907 31.6524 27.251H37.8496ZM43.5 22.9014C40.408 22.9014 37.9014 25.408 37.9014 28.5H44.0986C44.0986 28.8306 43.8306 29.0986 43.5 29.0986V22.9014ZM37.9014 28.5C37.9014 31.592 40.408 34.0986 43.5 34.0986V27.9014C43.8306 27.9014 44.0986 28.1694 44.0986 28.5H37.9014ZM43.5 34.0986C46.592 34.0986 49.0986 31.592 49.0986 28.5H42.9014C42.9014 28.1694 43.1694 27.9014 43.5 27.9014V34.0986ZM49.0986 28.5C49.0986 25.408 46.592 22.9014 43.5 22.9014V29.0986C43.1694 29.0986 42.9014 28.8306 42.9014 28.5H49.0986Z" fill="#932816" mask="url(#path-2-inside-1_712_1052)"/>
</svg>
