<svg width="32" height="32" viewBox="0 0 32 32" fill="none" xmlns="http://www.w3.org/2000/svg">
<g id="Component 8">
<path id="Vector" d="M28 6.00009V12.0001C28 12.2653 27.8946 12.5197 27.7071 12.7072C27.5196 12.8947 27.2652 13.0001 27 13.0001H21C20.7348 13.0001 20.4804 12.8947 20.2929 12.7072C20.1054 12.5197 20 12.2653 20 12.0001C20 11.7349 20.1054 11.4805 20.2929 11.293C20.4804 11.1054 20.7348 11.0001 21 11.0001H24.5863L22.7575 9.17134C20.899 7.30435 18.3756 6.25103 15.7413 6.24259H15.685C13.0727 6.23647 10.563 7.25894 8.69875 9.08884C8.50777 9.26712 8.25462 9.36358 7.99343 9.35759C7.73224 9.3516 7.48377 9.24363 7.30118 9.05678C7.11858 8.86994 7.01635 8.61905 7.01636 8.3578C7.01638 8.09654 7.11863 7.84567 7.30125 7.65884C9.56066 5.45059 12.5998 4.22244 15.759 4.24093C18.9183 4.25942 21.9428 5.52305 24.1763 7.75759L26 9.58634V6.00009C26 5.73488 26.1054 5.48052 26.2929 5.29299C26.4804 5.10545 26.7348 5.00009 27 5.00009C27.2652 5.00009 27.5196 5.10545 27.7071 5.29299C27.8946 5.48052 28 5.73488 28 6.00009ZM23.3013 22.9113C21.4185 24.7504 18.8867 25.7731 16.2549 25.7576C13.6231 25.7422 11.1035 24.6899 9.2425 22.8288L7.41375 21.0001H11C11.2652 21.0001 11.5196 20.8947 11.7071 20.7072C11.8946 20.5197 12 20.2653 12 20.0001C12 19.7349 11.8946 19.4805 11.7071 19.293C11.5196 19.1054 11.2652 19.0001 11 19.0001H5C4.73478 19.0001 4.48043 19.1054 4.29289 19.293C4.10536 19.4805 4 19.7349 4 20.0001V26.0001C4 26.2653 4.10536 26.5197 4.29289 26.7072C4.48043 26.8947 4.73478 27.0001 5 27.0001C5.26522 27.0001 5.51957 26.8947 5.70711 26.7072C5.89464 26.5197 6 26.2653 6 26.0001V22.4138L7.82875 24.2426C10.059 26.4841 13.088 27.7484 16.25 27.7576H16.3162C19.4514 27.7657 22.4634 26.5383 24.7 24.3413C24.8826 24.1545 24.9849 23.9036 24.9849 23.6424C24.9849 23.3811 24.8827 23.1302 24.7001 22.9434C24.5175 22.7566 24.269 22.6486 24.0078 22.6426C23.7466 22.6366 23.4935 22.7331 23.3025 22.9113H23.3013Z" fill="#932816"/>
</g>
</svg>
