<svg width="72" height="72" viewBox="0 0 72 72" fill="none" xmlns="http://www.w3.org/2000/svg">
<rect width="72" height="72" rx="36" fill="#FFEFBD"/>
<path d="M50.9665 27.7166C50.1665 27.1666 49.1499 27.0666 48.2499 27.4166L43.8999 29.1499C43.7999 26.6999 41.7999 24.7333 39.3332 24.7333H24.3332C21.7999 24.7333 19.7499 26.7833 19.7499 29.3166V42.6499C19.7499 45.1833 21.7999 47.2333 24.3332 47.2333H39.3332C41.7999 47.2333 43.7999 45.2666 43.8999 42.8166L48.2499 44.5499C48.5999 44.6833 48.9665 44.7666 49.3332 44.7666C49.8999 44.7666 50.4832 44.5999 50.9665 44.2666C51.7665 43.7166 52.2499 42.8166 52.2499 41.8499V30.0999C52.2499 29.1333 51.7665 28.2333 50.9665 27.6833V27.7166ZM41.4165 42.6666C41.4165 43.8166 40.4832 44.7499 39.3332 44.7499H24.3332C23.1832 44.7499 22.2499 43.8166 22.2499 42.6666V29.3333C22.2499 28.1833 23.1832 27.2499 24.3332 27.2499H39.3332C40.4832 27.2499 41.4165 28.1833 41.4165 29.3333V42.6666ZM49.7499 41.8666C49.7499 42.0666 49.6332 42.1666 49.5665 42.2166C49.4999 42.2666 49.3665 42.3333 49.1832 42.2666L43.9165 40.1666V31.8666L49.1832 29.7666C49.3665 29.6999 49.4999 29.7666 49.5665 29.8166C49.6332 29.8666 49.7499 29.9666 49.7499 30.1666V41.9166V41.8666Z" fill="#932816"/>
</svg>
