<svg width="32" height="32" viewBox="0 0 32 32" fill="none" xmlns="http://www.w3.org/2000/svg">
<g id="video">
<path id="Vector" d="M27.9733 9.37336C27.3333 8.93336 26.52 8.85336 25.8 9.13336L22.32 10.52C22.24 8.56003 20.64 6.98669 18.6667 6.98669H6.66667C4.64 6.98669 3 8.62669 3 10.6534V21.32C3 23.3467 4.64 24.9867 6.66667 24.9867H18.6667C20.64 24.9867 22.24 23.4134 22.32 21.4534L25.8 22.84C26.08 22.9467 26.3733 23.0134 26.6667 23.0134C27.12 23.0134 27.5867 22.88 27.9733 22.6134C28.6133 22.1734 29 21.4534 29 20.68V11.28C29 10.5067 28.6133 9.7867 27.9733 9.34669V9.37336ZM20.3333 21.3334C20.3333 22.2534 19.5867 23 18.6667 23H6.66667C5.74667 23 5 22.2534 5 21.3334V10.6667C5 9.74669 5.74667 9.00003 6.66667 9.00003H18.6667C19.5867 9.00003 20.3333 9.74669 20.3333 10.6667V21.3334ZM27 20.6934C27 20.8534 26.9067 20.9334 26.8533 20.9734C26.8 21.0134 26.6933 21.0667 26.5467 21.0134L22.3333 19.3334V12.6934L26.5467 11.0134C26.6933 10.96 26.8 11.0134 26.8533 11.0534C26.9067 11.0934 27 11.1734 27 11.3334V20.7334V20.6934Z" fill="#932816"/>
</g>
</svg>
