<svg width="32" height="32" viewBox="0 0 32 32" fill="none" xmlns="http://www.w3.org/2000/svg">
<g id="workout" clip-path="url(#clip0_916_8114)">
<path id="Vector" d="M30.15 6.90001L29.55 6.30001C29.1 5.85001 28.4 5.80001 27.95 6.25001L27.3 6.85001C26.35 5.85001 24.55 3.95001 23.9 3.20001L24.55 2.60001C25 2.15001 25 1.45001 24.6 1.00001L24 0.350007C23.55 -0.0999927 22.85 -0.0999927 22.4 0.300007L20.4 2.20001C19.95 2.65001 19.9 3.35001 20.35 3.80001L20.95 4.40001C21.4 4.85001 22.1 4.90001 22.55 4.45001L23.2 3.85001L23.9 4.60001L17.95 10.4H14.05L8.10004 4.65001L8.80004 3.90001L9.45004 4.50001C9.90004 4.95001 10.65 4.90001 11.05 4.45001L11.65 3.85001C12.1 3.40001 12.05 2.65001 11.6 2.25001L9.60004 0.350007C9.15004 -0.0999927 8.45004 -0.0499927 8.00004 0.400007L7.40004 1.00001C7.00004 1.45001 7.00004 2.15001 7.45004 2.60001L8.10004 3.20001C6.85004 4.55001 5.95004 5.50001 4.70004 6.85001L4.05004 6.25001C3.60004 5.80001 2.90004 5.85001 2.45004 6.30001L1.85004 6.90001C1.40004 7.35001 1.45004 8.10001 1.90004 8.50001L3.90004 10.4C4.35004 10.85 5.10004 10.8 5.50004 10.35L6.10004 9.75001C6.55004 9.30001 6.50004 8.55001 6.05004 8.15001L5.40004 7.50001L6.10004 6.75001L11.6 12.5V20.9L9.15004 29.45C8.85004 30.55 9.50004 31.65 10.5 31.95C11.55 32.25 12.65 31.6 12.9 30.5L15.5 21.45H16.2L18.75 30.45C19.05 31.55 20.1 32.2 21.15 31.9C22.15 31.6 22.8 30.45 22.5 29.35L20.05 20.85V12.8L25.85 6.75001L26.55 7.50001L25.9 8.10001C25.45 8.55001 25.4 9.25001 25.85 9.70001L26.45 10.3C26.9 10.75 27.6 10.8 28.05 10.35L30.05 8.45001C30.55 8.05001 30.6 7.35001 30.15 6.90001ZM21.85 3.75001C21.8 3.80001 21.7 3.80001 21.65 3.75001L21.05 3.15001C21 3.05001 21 3.00001 21.1 2.90001L23.1 1.00001C23.15 0.950007 23.25 0.950007 23.3 1.00001L23.9 1.60001C23.95 1.65001 23.95 1.75001 23.9 1.80001L21.85 3.75001ZM8.15004 1.65001L8.75004 1.05001C8.80004 1.00001 8.90004 1.00001 8.95004 1.05001L10.95 2.95001C11 3.00001 11 3.05001 10.95 3.10001L10.35 3.70001C10.3 3.75001 10.2 3.75001 10.15 3.70001L8.15004 1.80001C8.10004 1.80001 8.10004 1.70001 8.15004 1.65001ZM5.35004 9.05001L4.75004 9.65001C4.70004 9.70001 4.60004 9.70001 4.55004 9.65001L2.55004 7.75001C2.50004 7.70001 2.50004 7.60001 2.55004 7.55001L3.15004 6.95001C3.20004 6.90001 3.30004 6.90001 3.35004 6.95001L4.35004 7.90001L5.35004 8.85001C5.40004 8.90001 5.40004 8.95001 5.35004 9.05001ZM19.2 12.25C19.1 12.35 19.05 12.45 19.05 12.6V21.1L21.5 29.65C21.65 30.2 21.35 30.8 20.85 30.95C20.35 31.1 19.85 30.8 19.7 30.2L17.05 20.8C17 20.6 16.8 20.45 16.55 20.45H15.1C14.9 20.45 14.7 20.6 14.6 20.8L11.9 30.2C11.75 30.75 11.25 31.1 10.75 30.95C10.25 30.8 9.95004 30.2 10.1 29.65L12.55 21.05V12.3C12.55 12.15 12.5 12.05 12.4 11.95L6.80004 6.00001L7.45004 5.35001L13.5 11.25C13.6 11.35 13.7 11.4 13.85 11.4H18.15C18.3 11.4 18.4 11.35 18.5 11.25L24.6 5.35001L25.25 6.00001L19.2 12.25ZM29.4 7.75001L27.4 9.65001C27.35 9.70001 27.25 9.70001 27.2 9.65001L26.6 9.05001C26.55 9.00001 26.55 8.90001 26.6 8.85001C26.65 8.80001 28.7 6.90001 28.6 6.95001C28.65 6.90001 28.75 6.90001 28.8 6.95001L29.4 7.55001C29.5 7.60001 29.5 7.70001 29.4 7.75001Z" fill="#932816"/>
<path id="Vector_2" d="M16.05 8.65C17.8 8.65 19.25 7.2 19.25 5.45C19.25 3.7 17.8 2.25 16.05 2.25C14.3 2.25 12.85 3.7 12.85 5.45C12.85 7.25 14.25 8.65 16.05 8.65ZM16.05 3.3C17.25 3.3 18.25 4.3 18.25 5.5C18.25 6.7 17.25 7.7 16.05 7.7C14.85 7.7 13.85 6.7 13.85 5.5C13.85 4.25 14.85 3.3 16.05 3.3Z" fill="#932816"/>
</g>
<defs>
<clipPath id="clip0_916_8114">
<rect width="32" height="32" fill="white"/>
</clipPath>
</defs>
</svg>
